<?xml version="1.0" standalone="no"?>
<!DOCTYPE svg PUBLIC "-//W3C//DTD SVG 20010904//EN"
 "http://www.w3.org/TR/2001/REC-SVG-20010904/DTD/svg10.dtd">
<svg version="1.0" xmlns="http://www.w3.org/2000/svg"
 width="461.000000pt" height="541.000000pt" viewBox="0 0 461.000000 541.000000"
 preserveAspectRatio="xMidYMid meet">

<g transform="translate(0.000000,541.000000) scale(0.100000,-0.100000)"
fill="#000000" stroke="none">
<path d="M3841 5349 c-6 -18 -10 -33 -8 -35 1 -1 13 6 27 16 23 18 24 20 9 35
-15 15 -17 14 -28 -16z"/>
<path d="M786 5352 c-10 -10 -7 -18 24 -58 37 -48 83 -95 88 -89 6 6 -38 76
-74 117 -18 20 -35 34 -38 30z"/>
<path d="M726 5288 c-8 -28 1 -388 10 -397 2 -2 4 6 4 18 0 12 4 30 9 40 18
33 16 115 -8 306 -6 52 -9 56 -15 33z"/>
<path d="M3790 5288 c-23 -27 -78 -123 -74 -128 5 -4 19 11 73 77 12 14 25 63
17 63 -3 0 -10 -6 -16 -12z"/>
<path d="M3859 5279 c-7 -14 -9 -64 -4 -157 3 -75 8 -138 10 -140 10 -11 25
14 34 59 12 54 15 200 5 237 -8 28 -30 29 -45 1z"/>
<path d="M780 5242 c0 -9 9 -41 19 -70 11 -30 17 -60 14 -69 -3 -8 0 -63 7
-121 9 -82 20 -124 45 -177 17 -38 40 -101 50 -140 63 -247 62 -242 130 -390
16 -33 38 -85 51 -115 21 -52 24 -55 64 -61 52 -7 105 -62 154 -161 49 -96 58
-149 60 -337 2 -143 5 -171 19 -186 9 -9 17 -27 17 -41 0 -19 -5 -24 -24 -24
-17 0 -36 -15 -65 -51 -23 -29 -41 -58 -41 -66 0 -8 -6 -13 -12 -12 -31 4 -48
-2 -48 -16 0 -8 -9 -15 -19 -15 -26 0 -56 -41 -39 -51 7 -5 15 -5 18 -1 5 8
62 26 113 37 20 4 27 10 23 20 -4 11 3 15 26 15 26 0 29 -2 18 -15 -11 -13 -8
-15 19 -15 38 0 71 -15 71 -33 0 -7 9 -23 19 -36 l18 -24 7 42 c6 38 8 41 26
31 16 -9 20 -21 20 -61 0 -47 34 -149 49 -149 4 0 25 -16 47 -35 21 -19 44
-35 49 -35 15 0 45 -37 45 -55 0 -24 22 -65 36 -65 83 0 165 -206 168 -420 1
-78 6 -113 19 -137 9 -18 17 -38 17 -46 0 -23 37 -91 63 -115 25 -23 25 -24
44 -5 11 11 27 44 37 73 10 30 26 65 37 78 10 14 19 30 19 36 0 7 10 12 23 11
25 -1 107 -50 107 -65 0 -15 28 -12 37 5 15 26 107 85 133 85 26 0 100 -64
100 -87 0 -21 29 -36 52 -26 l21 9 -22 20 -21 21 20 18 c31 28 44 7 66 -109
12 -64 24 -100 33 -104 8 -3 17 0 19 6 2 7 8 9 14 6 7 -4 7 0 0 12 -14 29 9
74 39 74 8 0 8 4 -1 15 -10 13 -10 19 4 34 9 10 20 35 23 55 3 20 10 39 14 42
5 3 9 23 9 44 0 21 5 42 10 45 25 16 -8 119 -35 109 -18 -7 -28 59 -29 182
l-1 90 63 85 c43 56 81 95 115 116 73 45 77 50 77 86 0 36 23 77 36 64 5 -4 2
-12 -6 -17 -12 -7 -12 -12 -3 -21 14 -14 43 4 43 27 0 8 11 20 25 26 14 6 26
16 27 22 0 6 2 16 3 21 2 6 3 38 4 72 1 46 4 61 14 57 7 -2 13 -12 14 -22 2
-19 12 -70 19 -91 4 -11 7 -10 18 4 21 29 92 13 160 -36 31 -22 56 -44 56 -50
0 -10 -29 -24 -70 -33 -40 -9 -49 -19 -43 -49 l6 -28 19 21 c10 11 17 24 14
29 -9 15 41 22 84 12 23 -5 59 -21 80 -35 22 -14 43 -26 47 -26 5 0 19 -9 33
-20 14 -11 33 -20 43 -20 22 0 140 -64 157 -85 7 -8 20 -15 30 -15 10 0 33 -6
51 -14 19 -7 61 -16 94 -20 33 -4 78 -13 101 -22 36 -14 40 -18 36 -45 -4 -30
13 -40 34 -19 13 13 110 33 149 32 17 -1 51 -2 78 -2 38 -1 47 -4 47 -19 0
-10 2 -20 5 -23 7 -7 55 14 55 24 0 4 -28 21 -62 38 -35 17 -77 39 -94 49 -17
11 -48 21 -68 24 -20 3 -55 17 -76 32 -45 31 -83 52 -162 90 -31 15 -65 36
-74 46 -9 11 -25 19 -34 19 -10 0 -29 9 -44 21 -14 11 -26 16 -26 11 0 -19
-123 17 -235 69 -33 15 -73 31 -89 35 -25 6 -28 4 -23 -10 5 -11 1 -16 -12
-16 -25 0 -139 53 -180 84 -19 14 -39 26 -44 26 -5 0 -22 13 -38 29 -19 20
-35 27 -49 24 -15 -4 -19 -2 -14 10 3 9 -7 40 -24 69 -16 29 -36 80 -43 113
-7 33 -20 65 -28 72 -16 12 -14 14 11 17 7 0 17 28 24 61 6 33 16 73 23 89 6
16 10 35 7 43 -7 16 -33 17 -38 1 -2 -6 -20 -11 -39 -10 -186 10 -229 15 -238
25 -7 9 0 13 29 13 22 1 51 9 64 18 14 9 34 16 45 16 11 0 22 4 26 9 3 6 -22
8 -60 6 -62 -3 -94 8 -61 21 21 8 21 44 0 44 -11 0 -14 5 -10 16 4 12 1 14
-14 9 -14 -5 -20 -2 -20 9 0 9 5 16 10 16 6 0 18 8 29 19 10 10 24 20 30 22 7
3 9 12 5 23 -5 12 -9 14 -14 6 -15 -25 -29 -1 -18 30 12 35 35 50 76 50 28 0
72 -35 72 -58 0 -6 7 -9 15 -6 8 4 15 13 15 21 0 8 5 11 10 8 6 -3 10 -1 10 5
0 7 7 9 16 6 8 -3 37 5 64 19 27 14 57 25 65 25 9 0 14 4 10 10 -3 5 -12 7
-20 4 -8 -4 -18 1 -21 10 -5 13 -23 16 -94 16 -49 0 -92 5 -95 10 -3 6 -2 10
2 10 5 0 4 25 -1 55 -6 30 -13 55 -17 55 -8 0 -70 -61 -136 -133 -63 -69 -85
-72 -103 -17 -7 22 -16 40 -20 40 -11 0 -40 -35 -40 -48 0 -6 -6 -15 -13 -19
-7 -4 -32 -40 -55 -78 -42 -71 -107 -144 -117 -133 -4 3 28 56 69 117 42 61
76 115 76 119 0 4 16 22 35 41 19 18 35 39 35 46 0 18 15 26 34 19 10 -4 18
-24 22 -55 4 -27 11 -49 15 -49 5 0 19 12 32 27 37 46 193 203 201 203 4 0 7
-24 6 -52 -1 -29 -1 -57 -1 -61 1 -11 41 11 41 23 0 5 11 20 25 34 31 31 41
70 26 102 -14 31 -15 98 -1 89 6 -3 10 -19 10 -35 0 -40 9 -60 26 -53 16 6 19
56 4 83 -8 14 -19 19 -41 16 -17 -2 -34 -8 -38 -12 -11 -15 -147 -104 -159
-104 -7 0 -12 -4 -12 -9 0 -5 -10 -13 -22 -17 -13 -3 -42 -22 -65 -40 -23 -19
-45 -34 -50 -34 -4 0 -26 -14 -47 -30 -22 -17 -45 -30 -52 -30 -6 0 -17 -7
-25 -16 -7 -9 -40 -29 -73 -46 -34 -17 -75 -41 -93 -54 -17 -13 -37 -24 -43
-24 -7 0 -25 -9 -41 -21 -37 -26 -54 -17 -32 17 16 26 16 26 -13 23 -34 -3
-74 16 -74 36 0 8 -32 33 -71 56 -39 23 -75 52 -81 64 -5 12 -40 38 -78 58
-37 21 -75 48 -83 61 -10 14 -33 28 -62 35 -26 6 -61 25 -78 41 -18 17 -36 30
-42 30 -5 0 -21 9 -35 20 -14 11 -31 20 -37 20 -20 0 4 -43 35 -62 15 -9 54
-36 87 -60 33 -24 79 -52 103 -62 23 -11 42 -22 42 -26 0 -4 12 -12 26 -19 15
-6 50 -31 78 -54 50 -42 64 -53 139 -102 22 -15 37 -33 37 -45 0 -27 -10 -25
-56 13 -21 17 -55 40 -74 51 -19 10 -55 37 -80 60 -25 23 -66 53 -92 66 -27
13 -48 27 -48 31 0 5 -14 8 -32 6 -26 -2 -39 5 -72 41 -22 24 -52 50 -67 58
-16 8 -40 26 -56 40 -15 14 -43 32 -61 40 -19 7 -46 24 -62 36 -15 13 -42 32
-60 43 -76 46 -99 62 -151 106 -30 26 -68 55 -85 65 -103 63 -288 255 -380
395 -73 111 -94 131 -94 91z m115 -174 c0 -8 5 -22 12 -29 7 -9 8 -30 3 -64
-8 -48 10 -152 31 -180 10 -14 49 -154 49 -178 0 -10 -4 -15 -10 -12 -5 3 -10
14 -10 24 0 10 -15 61 -34 112 -46 126 -69 207 -68 238 3 103 4 112 15 108 7
-2 12 -11 12 -19z m66 -75 c0 -5 2 -28 4 -53 2 -35 15 -66 54 -130 29 -46 58
-89 65 -94 7 -6 28 -33 47 -59 37 -52 74 -101 129 -167 19 -24 38 -48 42 -54
4 -7 13 -4 26 7 10 9 22 17 25 17 12 0 7 -39 -5 -46 -35 -22 -66 -3 -134 82
-18 21 -56 68 -86 104 -125 148 -198 277 -198 347 0 22 3 43 7 46 9 9 23 9 24
0z m197 -231 c2 -7 -4 -12 -14 -12 -18 0 -54 27 -54 42 0 12 63 -16 68 -30z
m280 -309 c55 -83 87 -129 109 -156 22 -27 22 -27 33 -6 7 12 10 32 7 45 -4
21 0 24 24 24 16 0 29 -4 29 -9 0 -6 16 -27 35 -48 19 -21 35 -44 35 -50 0 -7
5 -13 10 -13 6 0 15 -11 20 -25 13 -34 28 -31 32 7 4 41 23 47 36 11 10 -29
128 -182 189 -245 26 -26 34 -42 29 -55 -7 -17 -8 -17 -20 0 -7 9 -17 17 -22
18 -5 0 -26 21 -47 47 -20 26 -51 63 -67 83 -17 20 -30 41 -30 46 0 5 -7 18
-15 29 -14 19 -14 19 -31 -4 l-16 -23 -25 23 c-14 13 -45 51 -70 86 -47 65
-62 75 -64 42 -1 -11 -3 -24 -4 -30 -1 -5 -3 -14 -4 -20 0 -5 -9 -10 -19 -10
-25 0 -77 58 -137 154 -28 43 -60 82 -72 87 -25 9 -26 10 -17 33 9 24 42 5 72
-41z m522 -199 c0 -8 -4 -14 -9 -14 -12 0 -32 26 -25 33 10 9 34 -4 34 -19z
m890 -208 c0 -3 -4 -8 -10 -11 -5 -3 -10 -1 -10 4 0 6 5 11 10 11 6 0 10 -2
10 -4z m-608 -38 c-7 -7 -12 -8 -12 -2 0 14 12 26 19 19 2 -3 -1 -11 -7 -17z
m171 -27 c15 -8 27 -18 27 -23 0 -5 -3 -8 -7 -6 -46 22 -63 33 -63 41 0 5 3 7
8 5 4 -2 19 -10 35 -17z m-91 -39 c48 -20 76 -88 60 -147 -9 -33 -77 -85 -121
-93 -56 -9 -77 -4 -110 26 -28 26 -34 38 -35 75 -1 54 46 138 84 147 34 9 89
5 122 -8z m-463 -66 c-46 -99 -122 -156 -208 -156 -58 0 -127 33 -135 64 -9
35 10 39 45 8 88 -76 194 -35 264 103 24 49 30 54 42 42 13 -12 11 -21 -8 -61z
m611 64 c0 -5 -2 -10 -4 -10 -3 0 -8 5 -11 10 -3 6 -1 10 4 10 6 0 11 -4 11
-10z m276 -50 c2 -22 33 -91 50 -107 8 -8 14 -20 14 -27 0 -25 38 -57 74 -63
27 -4 36 -10 36 -25 0 -16 -4 -18 -17 -12 -10 5 -39 9 -65 9 -36 0 -48 4 -48
15 -1 13 -2 13 -13 0 -7 -8 -29 -26 -49 -40 -21 -14 -38 -28 -38 -31 0 -3 -25
-31 -55 -62 -54 -55 -55 -56 -48 -102 5 -42 4 -47 -13 -43 -13 2 -21 16 -27
44 l-8 41 -46 -8 c-26 -5 -58 -19 -72 -32 -14 -12 -31 -27 -38 -34 -23 -21
-14 -42 29 -64 53 -27 117 -27 188 0 65 24 104 63 115 111 4 19 11 41 16 50 4
8 14 30 21 48 8 19 20 32 30 32 22 0 22 -9 3 -34 -8 -11 -15 -30 -15 -42 0
-13 -5 -26 -11 -30 -8 -4 -8 -9 0 -17 21 -21 11 -77 -26 -147 -21 -39 -42 -70
-49 -70 -6 0 -23 -9 -36 -20 -23 -17 -35 -19 -109 -13 -46 3 -91 11 -99 18 -8
7 -24 15 -35 19 -28 8 -75 54 -75 72 0 8 -7 25 -15 38 -15 23 -14 26 32 73 53
56 81 73 115 73 60 1 123 36 196 109 31 31 69 63 85 69 31 13 36 42 10 63 -24
21 -43 73 -43 119 0 34 3 41 18 38 9 -2 17 -10 18 -18z m-108 -51 c19 -17 31
-33 28 -36 -7 -7 -76 45 -76 58 0 16 14 10 48 -22z m-8 -99 c0 -25 -9 -37 -52
-67 -51 -37 -89 -44 -112 -22 -24 23 -65 9 -104 -36 -22 -25 -45 -45 -51 -45
-15 0 -14 5 8 48 28 55 75 76 149 67 78 -9 94 -3 127 45 15 22 29 40 31 40 2
0 4 -14 4 -30z m-684 -4 c11 -8 29 -35 39 -60 23 -55 48 -70 95 -56 59 17 67
11 30 -20 -42 -35 -49 -36 -99 -11 -29 15 -45 34 -66 77 -15 31 -36 59 -46 61
-10 3 -16 9 -13 14 8 13 37 11 60 -5z m1115 -56 c25 -14 25 -40 0 -40 -11 0
-23 -4 -26 -10 -3 -5 -11 -10 -16 -10 -6 0 -8 4 -5 9 3 5 -3 11 -14 14 -27 7
-25 26 3 37 30 12 35 12 58 0z m-52 -65 c45 -22 67 -46 55 -58 -7 -7 -64 23
-64 34 0 5 -5 9 -11 9 -11 0 -39 24 -39 34 0 10 9 7 59 -19z m-1258 -11 c8 -8
20 -14 25 -14 6 0 43 -31 83 -69 68 -65 72 -71 57 -86 -9 -9 -16 -30 -16 -46
0 -23 -4 -30 -17 -27 -19 4 -35 52 -27 85 5 17 -5 33 -45 73 -27 27 -59 50
-70 50 -11 0 -23 5 -26 10 -3 6 -19 10 -34 10 -33 0 -42 7 -34 26 6 17 80 9
104 -12z m-19 -169 c3 -41 12 -62 38 -95 l34 -42 72 4 c40 3 77 1 82 -4 13
-13 71 62 78 101 6 30 6 30 -27 21 -23 -7 -37 -6 -47 3 -13 10 -4 13 49 18 89
9 94 -4 41 -121 -27 -59 -58 -94 -94 -106 -12 -3 -28 -12 -35 -19 -15 -15 -95
-9 -137 11 -16 8 -39 14 -50 14 -29 1 -56 42 -59 87 -1 28 2 38 13 38 8 1 14
5 13 10 0 6 -4 26 -7 46 -3 20 -8 43 -12 52 -10 26 2 46 24 40 16 -4 21 -16
24 -58z m978 -306 l0 -81 47 4 c39 2 48 0 51 -15 2 -11 -2 -17 -10 -16 -34 6
-91 -36 -83 -61 7 -21 -13 -76 -23 -66 -4 4 -7 13 -7 19 -2 28 -18 66 -30 70
-7 3 -30 2 -51 -3 -21 -5 -40 -8 -41 -6 -7 7 10 36 21 36 7 0 28 15 48 33 32
29 35 37 37 91 2 67 6 76 27 76 11 0 14 -17 14 -81z m97 -15 c-3 -3 -12 -4
-19 -1 -8 3 -5 6 6 6 11 1 17 -2 13 -5z m-709 -47 c12 -12 21 -31 21 -42 0
-26 9 -163 16 -235 7 -71 35 -210 47 -232 5 -10 20 -18 36 -18 32 -1 53 -27
76 -94 21 -60 18 -116 -4 -116 -22 0 -42 24 -68 82 -12 25 -26 49 -32 53 -6 3
-8 10 -6 14 3 4 -9 24 -25 44 -32 39 -69 49 -69 20 0 -32 -17 2 -23 45 -6 49
11 57 37 17 9 -14 22 -25 28 -25 9 0 9 3 0 12 -7 7 -12 24 -12 39 0 14 -9 38
-20 52 -22 28 -26 63 -9 69 8 3 8 23 1 73 -6 39 -8 105 -5 149 5 67 4 80 -10
88 -18 9 -23 28 -9 28 5 0 18 -10 30 -23z m398 -42 c-3 -8 -1 -15 3 -15 13 0
20 -56 26 -210 3 -74 8 -170 11 -212 4 -50 3 -78 -4 -78 -5 0 -13 10 -17 23
-6 21 -7 20 -22 -13 -9 -19 -19 -48 -24 -65 -16 -62 -37 -110 -48 -109 -6 1
-15 2 -21 3 -18 2 -11 104 10 146 25 50 42 77 58 90 9 7 12 63 13 215 0 195 3
240 16 240 3 0 3 -7 -1 -15z"/>
<path d="M2187 3892 c-9 -10 -20 -40 -23 -65 -9 -60 12 -87 65 -87 33 1 34 2
18 15 -14 10 -18 25 -17 57 3 77 0 98 -13 98 -8 0 -21 -8 -30 -18z"/>
<path d="M2273 3853 c-1 -32 -4 -67 -5 -78 -5 -30 27 -29 56 2 35 38 36 94 1
117 -42 28 -51 21 -52 -41z"/>
<path d="M2641 3326 c-6 -8 -25 -19 -41 -26 -44 -18 -37 -34 12 -27 41 6 68
27 68 54 0 17 -25 17 -39 -1z"/>
<path d="M1885 3271 c-32 -5 -41 -11 -43 -28 -3 -19 1 -23 23 -23 14 0 28 7
31 15 4 8 12 15 19 15 7 0 18 7 25 15 14 17 14 17 -55 6z"/>
<path d="M3794 5181 c-44 -43 -84 -93 -84 -102 0 -4 -16 -20 -35 -35 -19 -14
-35 -32 -35 -40 0 -7 -11 -19 -24 -26 -14 -7 -63 -49 -109 -93 -46 -44 -119
-109 -163 -145 -138 -113 -138 -113 -135 -200 1 -41 4 -77 7 -79 5 -5 44 30
44 40 0 12 44 78 53 79 4 0 7 -11 7 -25 0 -16 6 -25 15 -25 8 0 15 4 15 8 0
11 23 38 118 137 42 45 86 98 97 119 18 34 78 106 89 106 2 0 6 -9 9 -20 3
-13 0 -20 -9 -20 -8 0 -14 -6 -14 -14 0 -8 -6 -21 -13 -28 -7 -7 -31 -38 -54
-68 -48 -65 -198 -220 -213 -220 -5 0 -10 -7 -10 -16 0 -11 -6 -15 -20 -11
-15 4 -20 0 -20 -16 0 -11 -3 -18 -6 -14 -12 11 -60 -21 -89 -60 -16 -21 -62
-77 -102 -125 -67 -80 -88 -118 -63 -118 6 0 10 4 10 9 0 15 56 32 82 26 15
-4 29 -2 33 4 3 6 10 9 15 6 4 -2 25 1 46 9 l39 13 -56 13 c-67 15 -69 33 -9
68 52 30 84 28 110 -5 l22 -28 -31 -27 -30 -27 27 -4 c35 -7 84 -3 99 6 6 4
15 32 18 62 4 32 14 60 25 70 10 9 16 23 13 31 -3 8 0 14 6 14 6 0 11 -4 11
-10 0 -5 13 -10 28 -10 15 0 33 -5 40 -12 9 -9 16 -7 31 9 11 12 26 23 33 26
9 4 7 9 -8 20 -17 13 -22 31 -28 103 -5 63 -11 90 -23 99 -14 11 -14 13 7 18
15 4 21 11 17 21 -4 10 9 28 35 51 39 32 77 48 63 25 -3 -5 3 -10 14 -10 17 0
21 -6 21 -35 0 -19 -3 -34 -7 -34 -20 3 -23 -2 -9 -17 18 -17 21 -61 7 -96 -6
-13 -12 -39 -15 -59 -4 -19 -16 -46 -27 -58 -18 -19 -20 -27 -10 -47 6 -13 14
-24 18 -24 13 0 44 79 53 135 5 27 18 80 29 116 23 74 50 192 58 257 4 33 2
41 -8 37 -20 -7 -55 43 -40 58 7 7 19 12 29 12 12 0 18 10 20 35 1 19 5 42 8
50 6 13 12 140 8 140 -1 0 -15 -13 -30 -29z m-24 -341 c0 -5 -4 -10 -10 -10
-5 0 -10 5 -10 10 0 6 5 10 10 10 6 0 10 -4 10 -10z m-292 -317 c-4 -20 -27
-27 -47 -14 -19 12 -4 31 25 31 19 0 25 -5 22 -17z m-188 -123 c0 -5 -7 -10
-15 -10 -8 0 -15 5 -15 10 0 6 7 10 15 10 8 0 15 -4 15 -10z m120 6 c0 -11
-19 -15 -25 -6 -3 5 1 10 9 10 9 0 16 -2 16 -4z"/>
<path d="M960 5129 c0 -26 16 -55 49 -89 14 -15 44 -47 65 -71 53 -59 212
-198 237 -207 18 -7 8 14 -19 40 -179 174 -274 272 -296 306 -30 47 -36 51
-36 21z"/>
<path d="M3795 4959 c-4 -6 -5 -13 -2 -16 7 -7 27 6 27 18 0 12 -17 12 -25 -2z"/>
<path d="M780 4836 c0 -66 60 -355 79 -381 4 -5 16 -32 26 -60 14 -40 82 -179
124 -255 5 -8 21 -41 36 -72 15 -32 31 -58 35 -58 5 0 11 -13 15 -30 4 -16 11
-30 16 -30 5 0 9 -8 9 -18 0 -10 9 -28 20 -40 11 -11 27 -40 37 -64 9 -24 24
-54 33 -68 34 -49 52 -93 54 -131 2 -21 10 -49 19 -62 10 -16 12 -28 6 -40 -8
-13 -137 -119 -194 -159 -5 -4 -31 -25 -56 -47 -25 -23 -49 -41 -53 -41 -4 0
-19 -12 -34 -28 -15 -15 -54 -49 -87 -75 -33 -26 -85 -68 -115 -93 -30 -25
-83 -69 -117 -97 -83 -67 -83 -79 5 -71 71 7 112 25 112 49 0 18 12 19 27 4 9
-9 18 -8 37 5 15 9 26 21 26 26 0 6 6 10 13 10 7 0 32 16 54 35 46 39 53 42
53 20 0 -21 24 -8 73 40 20 20 45 35 54 33 15 -3 15 -5 -1 -21 -24 -24 -16
-30 17 -14 31 14 44 37 21 37 -9 0 -14 6 -11 13 8 23 -13 47 -41 46 -15 0 -21
-3 -15 -6 19 -7 -3 -43 -27 -43 -21 0 -35 33 -28 67 2 13 14 19 46 21 26 2 45
9 49 18 3 8 17 14 32 14 51 0 120 51 164 120 38 59 50 128 38 210 -15 93 -26
119 -100 222 -33 48 -61 91 -61 97 0 6 -8 18 -18 28 -16 16 -182 386 -182 406
0 5 -11 33 -25 64 -14 30 -30 78 -36 106 -26 123 -107 357 -124 357 -3 0 -5
-20 -5 -44z"/>
<path d="M1350 4742 c40 -54 180 -155 195 -140 3 3 -23 27 -57 54 -35 27 -64
52 -66 56 -2 5 -9 8 -17 8 -7 0 -18 7 -25 16 -8 8 -22 20 -33 25 -17 10 -17 8
3 -19z"/>
<path d="M3240 4720 c-14 -10 -22 -21 -19 -25 4 -3 14 1 22 10 9 8 20 15 26
15 6 0 11 5 11 10 0 15 -12 12 -40 -10z"/>
<path d="M3194 4676 c-8 -22 3 -33 18 -18 9 9 9 15 0 24 -9 9 -13 7 -18 -6z"/>
<path d="M1585 4570 c3 -5 8 -10 11 -10 2 0 4 5 4 10 0 6 -5 10 -11 10 -5 0
-7 -4 -4 -10z"/>
<path d="M1616 4545 c4 -8 10 -12 15 -9 14 8 10 24 -6 24 -9 0 -12 -6 -9 -15z"/>
<path d="M3036 4533 c-27 -27 -28 -46 -1 -23 16 13 39 50 32 50 -2 0 -16 -12
-31 -27z"/>
<path d="M3651 4344 c0 -11 3 -14 6 -6 3 7 2 16 -1 19 -3 4 -6 -2 -5 -13z"/>
<path d="M3603 4319 c-11 -11 -6 -49 6 -49 3 0 12 9 18 19 15 23 -6 48 -24 30z"/>
<path d="M2618 4253 c7 -3 16 -2 19 1 4 3 -2 6 -13 5 -11 0 -14 -3 -6 -6z"/>
<path d="M2450 4160 c0 -13 11 -13 30 0 12 8 11 10 -7 10 -13 0 -23 -4 -23
-10z"/>
<path d="M1140 4062 c0 -19 34 -96 52 -116 9 -11 79 -113 119 -173 11 -18 28
-33 37 -33 11 0 13 3 6 8 -7 4 -17 23 -22 42 -31 103 -81 194 -137 253 -40 41
-55 46 -55 19z"/>
<path d="M3050 4019 c0 -6 -9 -9 -20 -6 -11 3 -29 -2 -41 -12 -20 -16 -20 -18
-4 -31 9 -8 30 -13 46 -12 21 2 27 -1 23 -12 -8 -21 24 -27 57 -11 32 17 32
17 -18 71 -23 25 -43 31 -43 13z"/>
<path d="M1040 3970 c0 -5 5 -10 11 -10 5 0 7 5 4 10 -3 6 -8 10 -11 10 -2 0
-4 -4 -4 -10z"/>
<path d="M3115 3829 c-4 -6 -4 -13 -1 -16 8 -8 36 5 36 17 0 13 -27 13 -35 -1z"/>
<path d="M3068 3823 c7 -3 16 -2 19 1 4 3 -2 6 -13 5 -11 0 -14 -3 -6 -6z"/>
<path d="M3222 3798 c-33 -41 -77 -246 -63 -296 6 -18 8 -39 5 -46 -2 -6 2
-31 11 -55 20 -58 105 -138 212 -202 82 -48 85 -49 115 -35 27 14 33 14 68 -4
21 -10 40 -16 44 -13 11 11 7 45 -5 38 -6 -4 -20 2 -32 13 -12 11 -33 25 -47
31 -47 20 -79 45 -168 129 -31 28 -61 52 -67 52 -6 0 -17 9 -25 19 -7 11 -17
18 -22 15 -4 -3 -8 7 -8 23 0 15 -9 39 -20 53 -22 28 -27 74 -7 68 6 -3 13
-14 15 -26 4 -26 15 -28 33 -6 11 14 9 20 -19 45 -29 26 -32 34 -26 62 4 18 8
50 8 72 1 22 5 46 10 53 11 18 1 26 -12 10z m286 -611 c3 -16 1 -17 -17 -5
-25 16 -27 31 -4 26 10 -2 19 -11 21 -21z"/>
<path d="M3302 3493 c-17 -31 -15 -42 11 -64 41 -34 47 -20 18 46 -17 38 -18
39 -29 18z"/>
<path d="M1062 3404 c-21 -15 -30 -34 -14 -34 7 1 47 50 40 50 -2 0 -14 -7
-26 -16z"/>
<path d="M1335 3390 c-7 -12 2 -30 16 -30 5 0 9 9 9 20 0 21 -15 27 -25 10z"/>
<path d="M985 3330 c-3 -5 -1 -10 4 -10 6 0 11 5 11 10 0 6 -2 10 -4 10 -3 0
-8 -4 -11 -10z"/>
<path d="M910 3260 c0 -5 5 -10 10 -10 6 0 10 5 10 10 0 6 -4 10 -10 10 -5 0
-10 -4 -10 -10z"/>
<path d="M1197 3248 c-4 -12 -4 -24 -1 -27 8 -9 39 15 42 33 5 26 -35 20 -41
-6z"/>
<path d="M1132 3228 c-20 -20 -14 -40 11 -36 14 2 22 10 22 22 0 24 -16 31
-33 14z"/>
<path d="M3663 3116 c30 -24 120 -51 115 -34 -6 18 -87 58 -116 58 l-27 -1 28
-23z"/>
<path d="M3176 3058 c-14 -70 -16 -97 -5 -104 19 -11 29 18 27 74 -3 54 -14
69 -22 30z"/>
<path d="M1260 3041 c-15 -29 -12 -49 9 -61 39 -20 60 -12 67 24 3 19 3 39 -1
45 -11 19 -63 13 -75 -8z"/>
<path d="M3936 3041 c-3 -5 1 -12 10 -15 20 -8 29 -1 19 13 -8 13 -22 14 -29
2z"/>
<path d="M1150 3024 c0 -8 5 -12 10 -9 6 4 8 11 5 16 -9 14 -15 11 -15 -7z"/>
<path d="M950 2995 c-19 -14 -43 -25 -53 -25 -11 0 -35 -11 -53 -25 -18 -14
-39 -25 -48 -25 -8 0 -19 -6 -23 -13 -4 -8 -30 -17 -56 -20 -58 -8 -87 -22
-87 -44 0 -13 3 -14 23 -1 31 19 87 23 87 6 0 -13 -50 -32 -110 -42 -35 -6
-63 -18 -78 -33 -16 -16 -42 -17 -42 -2 0 6 18 29 41 51 23 22 37 43 33 48
-21 18 -71 18 -100 1 -53 -34 -173 -159 -180 -188 -3 -15 -7 -33 -9 -40 -6
-18 21 -23 55 -12 37 13 39 36 3 50 -45 17 -13 28 87 30 59 0 103 6 116 14 11
7 46 16 77 20 37 5 62 14 70 24 6 10 25 26 40 36 20 13 25 21 18 28 -23 23
-10 34 48 40 33 4 93 15 133 26 40 11 80 19 88 19 49 -3 140 3 140 10 0 4 -39
8 -87 9 -114 3 -118 5 -98 42 20 40 6 46 -35 16z"/>
<path d="M4000 3012 c0 -11 47 -45 100 -72 25 -12 53 -29 63 -38 9 -8 20 -12
24 -8 10 10 -37 45 -59 46 -10 0 -23 9 -30 20 -7 11 -20 20 -29 20 -9 0 -24 9
-34 20 -19 21 -35 26 -35 12z"/>
<path d="M3062 2937 c-27 -29 -28 -48 -3 -67 11 -7 18 -17 15 -22 -3 -4 -1 -8
4 -8 11 0 44 99 36 111 -9 15 -30 10 -52 -14z"/>
<path d="M1545 2939 c-4 -6 1 -31 10 -56 10 -26 15 -58 12 -77 -6 -36 1 -51
23 -51 8 0 17 -11 20 -25 4 -16 14 -26 27 -28 12 -2 32 -19 44 -38 14 -23 27
-33 36 -29 16 5 16 4 -4 -72 -5 -20 -1 -23 25 -23 19 0 32 -6 36 -17 6 -15 8
-15 16 -3 13 20 12 66 0 88 -5 9 -15 28 -20 42 -14 31 -32 63 -49 83 -7 9 -10
20 -7 25 12 20 -34 91 -70 108 -20 10 -46 32 -57 50 -23 36 -32 40 -42 23z
m132 -175 c5 -16 -34 -24 -47 -10 -5 7 -7 16 -3 20 10 10 46 3 50 -10z"/>
<path d="M3450 2941 c0 -5 -21 -17 -47 -27 -66 -25 -87 -46 -79 -79 8 -33 -16
-59 -49 -52 -14 2 -25 1 -25 -4 0 -4 12 -9 28 -11 15 -2 26 -8 25 -15 -2 -8 7
-13 20 -13 12 0 32 -6 43 -14 11 -8 36 -14 55 -13 19 1 46 -2 61 -6 25 -7 28
-4 39 33 15 48 1 90 -30 90 -28 0 -35 17 -12 29 38 21 100 13 148 -19 24 -16
55 -30 69 -30 29 0 32 -16 4 -23 -17 -4 -18 -9 -9 -36 7 -20 18 -31 30 -31 10
0 29 -12 42 -26 l24 -26 21 26 c24 31 42 34 42 6 0 -16 7 -20 30 -20 41 0 42
36 3 50 -16 6 -36 15 -45 20 -10 6 -24 10 -32 10 -8 0 -23 15 -35 33 -11 17
-39 42 -63 53 -90 45 -143 68 -155 69 -7 0 -23 9 -35 19 -14 13 -23 15 -26 8
-2 -7 -10 -12 -18 -12 -9 0 -12 5 -9 10 3 6 1 10 -4 10 -6 0 -11 -4 -11 -9z
m-83 -197 c-9 -9 -28 6 -21 18 4 6 10 6 17 -1 6 -6 8 -13 4 -17z"/>
<path d="M3170 2916 c0 -9 5 -16 10 -16 6 0 10 4 10 9 0 6 -4 13 -10 16 -5 3
-10 -1 -10 -9z"/>
<path d="M1120 2860 c0 -22 1 -23 24 -14 23 9 20 34 -4 34 -13 0 -20 -7 -20
-20z"/>
<path d="M1256 2868 c-11 -35 -14 -78 -7 -82 12 -8 71 67 71 89 0 11 -61 4
-64 -7z"/>
<path d="M1196 2841 c-17 -18 -15 -41 3 -41 7 0 31 43 31 55 0 11 -18 3 -34
-14z"/>
<path d="M1342 2830 c-13 -16 -18 -30 -12 -30 5 0 10 -5 10 -11 0 -7 -10 -9
-25 -5 -28 7 -33 -5 -9 -25 21 -17 45 -20 61 -7 9 7 13 7 13 -1 0 -6 9 -11 21
-11 18 0 17 3 -10 25 -25 22 -29 31 -24 60 7 43 3 43 -25 5z"/>
<path d="M3177 2840 c3 -11 7 -20 8 -20 1 0 5 9 8 20 3 12 0 20 -8 20 -8 0
-11 -8 -8 -20z"/>
<path d="M965 2840 c-3 -5 -4 -14 0 -19 12 -20 -17 -22 -31 -3 l-14 20 -42
-20 c-28 -14 -43 -17 -46 -9 -2 6 -14 11 -27 11 -29 0 -64 -58 -43 -72 8 -5 3
-8 -14 -8 -16 0 -28 -4 -28 -9 0 -18 26 -29 67 -28 32 1 45 -4 62 -23 26 -31
26 -40 1 -40 -22 0 -40 -27 -40 -60 0 -17 4 -20 23 -15 31 10 79 64 73 82 -3
8 -6 17 -6 19 0 2 -6 4 -14 4 -7 0 -16 9 -19 20 -4 15 0 20 15 20 35 0 13 25
-23 26 -61 1 -66 3 -49 14 9 6 79 10 172 8 172 -2 188 3 188 53 0 35 -6 36
-38 7 -23 -22 -24 -22 -37 -4 -12 15 -23 18 -67 14 -29 -3 -47 -3 -40 -1 6 3
12 9 12 14 0 12 -27 12 -35 -1z"/>
<path d="M2997 2809 c-15 -24 -34 -139 -23 -139 16 0 44 42 56 84 11 41 11 49
-3 63 -14 14 -16 13 -30 -8z"/>
<path d="M3540 2824 c0 -4 7 -12 14 -18 8 -6 17 -31 20 -56 3 -25 5 -46 5 -47
1 -2 8 -3 16 -3 22 0 18 -17 -5 -30 -25 -13 -19 -26 16 -33 22 -4 28 0 41 31
13 31 13 37 0 47 -9 7 -13 21 -10 42 5 28 1 35 -28 52 -33 20 -69 28 -69 15z"/>
<path d="M3190 2803 c1 -19 19 -35 34 -30 26 10 19 37 -9 37 -14 0 -25 -3 -25
-7z"/>
<path d="M1471 2771 c-27 -37 -26 -41 4 -41 22 0 25 4 25 35 0 19 -2 35 -4 35
-3 0 -14 -13 -25 -29z"/>
<path d="M281 2751 c-7 -5 -9 -11 -4 -14 5 -3 15 -2 22 2 7 5 9 11 4 14 -5 3
-15 2 -22 -2z"/>
<path d="M3974 2728 c-10 -15 46 -59 71 -56 12 2 21 12 23 24 2 17 -5 24 -29
33 -41 14 -56 14 -65 -1z"/>
<path d="M1081 2687 c-13 -21 -20 -41 -17 -44 11 -11 54 8 59 26 3 12 15 21
33 23 45 5 36 30 -12 32 -38 2 -42 -1 -63 -37z"/>
<path d="M598 2709 c-27 -15 -69 -94 -62 -113 11 -28 35 -14 70 41 26 41 30
54 21 67 -9 11 -17 13 -29 5z"/>
<path d="M957 2702 c-10 -10 -17 -35 -17 -54 0 -23 -6 -38 -15 -42 -23 -9 -18
-23 9 -23 17 0 26 6 30 23 4 13 13 24 21 24 11 0 15 12 15 45 0 49 -15 58 -43
27z"/>
<path d="M1260 2711 c0 -12 29 -35 36 -28 11 10 -5 37 -21 37 -8 0 -15 -4 -15
-9z"/>
<path d="M670 2676 c0 -19 -7 -41 -15 -50 -8 -8 -15 -21 -15 -29 0 -8 -13 -25
-29 -38 -36 -29 -33 -36 13 -31 32 4 36 8 43 41 4 20 7 38 8 41 0 3 12 19 28
35 31 34 34 45 12 45 -8 0 -15 5 -15 10 0 6 -7 10 -15 10 -10 0 -15 -10 -15
-34z"/>
<path d="M1363 2699 c-16 -16 -17 -69 -3 -69 15 0 22 23 18 55 -2 21 -5 24
-15 14z"/>
<path d="M1560 2661 c0 -22 -4 -43 -10 -46 -16 -10 -13 -105 4 -105 8 0 14 11
15 25 1 14 1 36 2 50 1 14 7 25 14 25 18 0 27 32 19 64 -4 17 -13 26 -25 26
-15 0 -19 -7 -19 -39z"/>
<path d="M3386 2675 c-6 -15 39 -53 51 -42 9 10 -4 35 -25 46 -15 8 -21 7 -26
-4z"/>
<path d="M4280 2680 c0 -5 5 -10 10 -10 6 0 10 5 10 10 0 6 -4 10 -10 10 -5 0
-10 -4 -10 -10z"/>
<path d="M203 2668 c-17 -6 -48 -28 -69 -49 -35 -36 -36 -39 -16 -39 20 0 59
16 72 30 3 3 17 13 33 23 15 10 27 24 27 32 0 17 -2 17 -47 3z"/>
<path d="M1187 2647 c-20 -30 -7 -58 20 -41 20 12 24 55 7 61 -6 2 -18 -7 -27
-20z"/>
<path d="M1245 2660 c-3 -5 -1 -10 4 -10 6 0 11 5 11 10 0 6 -2 10 -4 10 -3 0
-8 -4 -11 -10z"/>
<path d="M3460 2655 c-10 -12 -10 -15 3 -15 23 0 47 11 47 21 0 15 -37 10 -50
-6z"/>
<path d="M502 2638 c-15 -15 -16 -38 -2 -38 12 0 23 25 18 40 -2 7 -7 7 -16
-2z"/>
<path d="M421 2624 c0 -11 3 -14 6 -6 3 7 2 16 -1 19 -3 4 -6 -2 -5 -13z"/>
<path d="M1288 2616 c-18 -14 -24 -36 -10 -36 19 0 47 29 37 39 -7 6 -16 5
-27 -3z"/>
<path d="M1644 2615 c-4 -8 -13 -15 -22 -15 -13 0 -14 -2 -3 -12 11 -10 14
-10 18 0 3 6 13 12 23 12 10 0 20 -6 23 -12 2 -7 7 -10 11 -6 8 7 -23 48 -37
48 -4 0 -10 -7 -13 -15z"/>
<path d="M3520 2605 c-32 -17 -39 -25 -24 -25 26 0 84 28 84 41 0 13 -9 10
-60 -16z"/>
<path d="M1085 2607 c-12 -9 -14 -16 -7 -21 6 -3 14 0 19 7 4 8 15 17 23 20
13 5 13 6 -1 6 -8 1 -23 -5 -34 -12z"/>
<path d="M316 2592 c-63 -22 -72 -42 -19 -42 45 0 58 7 65 38 4 12 5 22 5 22
-1 -1 -24 -9 -51 -18z"/>
<path d="M379 2579 c-9 -17 -8 -23 2 -30 23 -15 29 -10 29 21 0 35 -14 39 -31
9z"/>
<path d="M1477 2587 c-3 -8 -1 -20 4 -28 6 -10 9 -7 9 14 0 29 -5 35 -13 14z"/>
<path d="M3355 2592 c6 -5 23 -12 38 -16 21 -5 28 -3 25 6 -3 7 -20 14 -39 16
-21 2 -30 0 -24 -6z"/>
<path d="M1836 2558 c4 -18 8 -41 9 -51 1 -10 8 -23 16 -28 12 -7 12 -9 0 -9
-17 0 -10 -73 10 -96 22 -27 34 20 16 66 -18 48 -35 112 -36 138 -1 6 -6 12
-12 12 -7 0 -8 -11 -3 -32z"/>
<path d="M507 2550 c-3 -11 -1 -20 4 -20 5 0 9 5 9 10 0 6 7 10 16 10 8 0 12
5 9 10 -10 17 -32 11 -38 -10z"/>
<path d="M1526 2474 c-4 -9 -4 -19 -1 -22 2 -3 7 3 11 12 4 9 4 19 1 22 -2 3
-7 -3 -11 -12z"/>
<path d="M607 2466 c-22 -17 -22 -22 3 -29 25 -6 45 16 28 31 -9 7 -18 7 -31
-2z"/>
<path d="M3416 2452 c-3 -6 -1 -14 5 -17 15 -10 25 3 12 16 -7 7 -13 7 -17 1z"/>
<path d="M1585 2440 c-3 -5 -1 -10 4 -10 6 0 11 5 11 10 0 6 -2 10 -4 10 -3 0
-8 -4 -11 -10z"/>
<path d="M3375 2391 c-3 -6 -3 -28 1 -50 6 -38 36 -71 63 -71 12 0 2 80 -12
98 -16 21 -45 33 -52 23z"/>
<path d="M576 2301 c-7 -11 14 -20 32 -14 6 3 12 9 12 14 0 12 -37 12 -44 0z"/>
<path d="M3337 2264 c-4 -4 -7 -19 -6 -33 l0 -26 10 24 c10 26 8 47 -4 35z"/>
<path d="M608 2240 c-22 -21 -22 -38 -2 -79 21 -43 33 -31 33 34 0 62 -6 70
-31 45z"/>
<path d="M3387 2188 c-5 -37 -2 -46 18 -65 l24 -23 7 56 c5 43 3 58 -7 65 -27
17 -36 9 -42 -33z"/>
<path d="M2458 2212 c-16 -2 -28 -8 -28 -13 0 -5 -6 -9 -13 -9 -7 0 -28 -16
-47 -35 -19 -19 -41 -35 -49 -35 -8 0 -23 -7 -33 -17 -10 -9 -21 -13 -26 -9
-4 4 1 13 11 20 9 7 17 16 17 20 0 17 -43 46 -69 46 -23 0 -32 -7 -44 -32 -31
-67 -41 -116 -29 -144 7 -13 12 -40 12 -59 0 -41 9 -67 21 -59 17 10 31 -7 18
-22 -6 -8 -9 -18 -5 -21 14 -15 40 15 53 61 8 27 21 55 28 63 8 7 17 29 21 48
5 28 11 35 29 35 21 0 23 -4 21 -47 -1 -40 -4 -48 -20 -48 -11 0 -21 -6 -23
-12 -3 -8 5 -13 21 -13 20 0 26 -5 26 -22 0 -13 5 -30 10 -38 17 -26 32 11 20
50 -1 3 -1 32 0 65 2 67 15 84 45 55 16 -17 18 -23 7 -40 -15 -24 -16 -76 -2
-85 6 -3 10 -1 10 6 0 7 8 31 19 53 10 23 21 49 24 59 7 19 43 23 49 5 3 -9 6
-9 12 0 4 7 2 12 -3 12 -6 0 -11 9 -11 20 0 11 5 20 10 20 6 0 10 -7 10 -15 0
-19 9 -19 32 2 23 20 34 10 41 -37 10 -69 23 -83 51 -54 20 19 20 33 1 58 -8
11 -15 28 -15 38 0 23 -30 38 -77 38 -34 0 -40 4 -57 40 -24 49 -33 57 -68 52z
m-198 -61 c0 -6 -4 -13 -10 -16 -5 -3 -10 1 -10 9 0 9 5 16 10 16 6 0 10 -4
10 -9z m220 -57 c0 -21 -4 -34 -11 -32 -6 2 -10 7 -10 11 1 4 1 21 1 38 0 17
4 28 10 24 6 -3 10 -22 10 -41z m-234 -80 c10 -40 -25 -139 -42 -121 -8 8 -7
75 2 120 7 34 32 35 40 1z"/>
<path d="M3332 2140 c0 -14 2 -19 5 -12 2 6 2 18 0 25 -3 6 -5 1 -5 -13z"/>
<path d="M617 2076 c-4 -9 -3 -26 2 -38 l8 -22 11 20 c9 16 8 26 -2 39 -12 16
-13 16 -19 1z"/>
<path d="M1916 2062 c12 -55 14 -59 25 -39 12 21 4 53 -17 61 -11 4 -13 0 -8
-22z"/>
<path d="M3367 2083 c-9 -14 17 -78 32 -78 8 0 15 11 16 25 1 14 4 31 6 39 2
7 -2 16 -10 19 -8 3 -11 0 -7 -7 9 -14 -7 -14 -21 0 -6 6 -13 7 -16 2z"/>
<path d="M2093 1974 c3 -16 12 -59 19 -96 14 -72 32 -103 47 -80 9 15 3 61
-10 78 -5 6 -15 35 -22 64 -15 57 -45 87 -34 34z"/>
<path d="M624 1945 c6 -36 4 -46 -9 -51 -8 -4 -22 -1 -30 6 -12 10 -15 9 -15
-8 0 -36 12 -52 37 -52 36 0 52 27 53 86 0 38 -4 53 -16 58 -26 10 -27 8 -20
-39z"/>
<path d="M2490 1969 c-13 -24 -6 -53 12 -47 15 5 22 55 9 63 -6 3 -15 -4 -21
-16z"/>
<path d="M3354 1962 c5 -22 4 -32 -5 -32 -9 0 -11 -29 -6 -121 7 -140 -3 -206
-39 -244 -30 -33 -26 -39 19 -31 46 9 49 29 38 221 -8 125 -7 153 5 166 19 21
18 43 -2 60 -15 12 -16 10 -10 -19z"/>
<path d="M2570 1950 c0 -32 11 -38 28 -17 7 8 7 17 -2 30 -19 25 -26 21 -26
-13z"/>
<path d="M2685 1950 c-7 -12 2 -30 16 -30 12 0 12 27 0 35 -5 3 -12 1 -16 -5z"/>
<path d="M2842 1910 c0 -14 2 -19 5 -12 2 6 2 18 0 25 -3 6 -5 1 -5 -13z"/>
<path d="M3417 1913 c-9 -14 2 -356 11 -365 5 -5 22 -6 37 -2 l28 7 -24 18
c-23 17 -24 24 -29 178 -5 147 -10 185 -23 164z"/>
<path d="M2420 1880 c0 -11 5 -20 10 -20 6 0 10 9 10 20 0 11 -4 20 -10 20 -5
0 -10 -9 -10 -20z"/>
<path d="M2703 1860 c0 -25 2 -35 4 -22 2 12 2 32 0 45 -2 12 -4 2 -4 -23z"/>
<path d="M2353 1804 c-10 -26 10 -69 32 -69 14 0 21 8 23 28 6 46 -40 80 -55
41z"/>
<path d="M515 1787 c-10 -14 -20 -17 -43 -13 -38 9 -64 -17 -33 -33 11 -6 29
-11 40 -11 11 0 32 -12 48 -27 61 -60 61 -60 96 -25 18 17 44 43 60 56 15 14
27 30 27 36 0 16 -38 27 -113 32 -59 3 -71 1 -82 -15z"/>
<path d="M2030 1769 c0 -62 20 -171 36 -196 8 -13 21 -23 28 -23 32 0 29 63
-5 110 -10 14 -20 46 -22 71 -1 26 -10 54 -20 63 -16 16 -17 15 -17 -25z"/>
<path d="M2586 1783 c-11 -29 4 -143 20 -143 20 0 22 10 14 79 -9 68 -23 95
-34 64z"/>
<path d="M2456 1762 c-3 -6 -1 -14 5 -17 15 -10 25 3 12 16 -7 7 -13 7 -17 1z"/>
<path d="M757 1742 c-13 -14 -17 -38 -17 -90 0 -79 15 -105 65 -118 14 -3 25
-10 25 -14 0 -4 14 -10 30 -13 18 -4 30 -13 30 -22 0 -21 -24 -19 -45 5 -10
11 -29 20 -42 20 -13 0 -26 7 -29 15 -15 39 -54 1 -54 -52 l0 -28 90 0 c60 0
90 4 90 11 0 6 7 17 15 24 37 31 -24 180 -103 253 -36 32 -34 32 -55 9z"/>
<path d="M2781 1744 c0 -11 3 -14 6 -6 3 7 2 16 -1 19 -3 4 -6 -2 -5 -13z"/>
<path d="M334 1738 c-64 -102 -72 -173 -33 -275 12 -31 20 -29 76 17 89 73 82
59 66 131 -20 86 -34 113 -61 117 -12 2 -22 8 -22 13 0 13 -18 11 -26 -3z"/>
<path d="M2245 1739 c-10 -15 3 -25 16 -12 7 7 7 13 1 17 -6 3 -14 1 -17 -5z"/>
<path d="M2687 1743 c-13 -12 -7 -23 13 -23 13 0 18 5 14 15 -7 16 -17 19 -27
8z"/>
<path d="M2466 1703 c4 -16 13 -35 20 -44 8 -8 14 -21 14 -28 0 -7 8 -11 17
-9 23 4 36 49 24 81 -9 22 -17 27 -46 27 -34 0 -35 -1 -29 -27z"/>
<path d="M665 1677 c-16 -17 -28 -39 -26 -47 4 -19 1 -17 33 -25 25 -6 27 -5
34 40 9 62 -5 73 -41 32z"/>
<path d="M450 1691 c0 -6 4 -12 9 -15 5 -3 12 -26 16 -51 8 -56 25 -65 61 -32
l26 25 -40 41 c-37 38 -72 54 -72 32z"/>
<path d="M2211 1678 c1 -13 5 -36 9 -53 l7 -30 12 30 c9 21 9 36 2 52 -14 29
-31 30 -30 1z"/>
<path d="M2425 1690 c-3 -5 -3 -15 1 -21 6 -11 23 6 24 24 0 10 -18 9 -25 -3z"/>
<path d="M2699 1695 c-11 -10 12 -170 27 -193 26 -40 38 -6 23 63 -10 47 -10
57 5 80 10 15 15 33 12 41 -5 13 -57 20 -67 9z"/>
<path d="M2365 1640 c-14 -22 -18 -297 -6 -361 13 -69 25 -98 36 -87 7 6 7 39
5 297 -1 82 2 116 11 122 10 6 10 11 0 23 -15 18 -37 21 -46 6z"/>
<path d="M2274 1624 c3 -8 -4 -24 -15 -35 -18 -18 -21 -31 -17 -94 2 -51 8
-79 21 -92 12 -14 14 -22 5 -31 -8 -8 -7 -26 5 -69 9 -32 23 -96 31 -142 13
-73 36 -124 50 -110 5 5 -31 226 -40 240 -3 6 -8 76 -9 155 -3 135 -2 144 15
144 22 0 35 16 20 25 -6 4 -24 11 -41 15 -25 8 -30 6 -25 -6z"/>
<path d="M553 1569 c-50 -46 -53 -69 -18 -121 23 -34 27 -36 66 -32 53 7 49
-18 -4 -27 -45 -7 -55 -15 -39 -31 7 -7 12 -27 12 -44 0 -18 4 -35 9 -39 5 -3
12 -19 16 -35 7 -33 31 -40 39 -12 23 78 35 156 26 167 -8 9 -8 15 -1 20 9 5
18 30 36 106 5 21 0 30 -27 51 -55 42 -68 42 -115 -3z"/>
<path d="M2448 1588 c-10 -18 -13 -76 -13 -263 0 -327 16 -325 50 8 5 48 11
67 21 67 22 0 16 -64 -28 -305 -20 -108 -34 -375 -20 -375 21 0 34 54 42 178
12 174 29 343 37 355 3 5 9 3 14 -4 8 -13 5 -78 -7 -133 -5 -21 -3 -27 7 -24
11 4 68 214 69 255 0 7 -12 23 -27 37 -19 18 -29 41 -38 88 -10 59 -13 63 -39
66 -26 3 -28 1 -24 -25 3 -15 7 -34 9 -42 2 -8 -3 -16 -11 -18 -21 -5 -42 47
-34 84 5 25 10 29 34 28 27 -2 28 -1 13 22 -19 29 -37 29 -55 1z"/>
<path d="M2534 1575 c3 -9 6 -19 6 -21 0 -2 7 -4 16 -4 22 0 13 34 -10 38 -14
3 -17 0 -12 -13z"/>
<path d="M2617 1575 c-4 -9 -7 -21 -7 -25 0 -10 40 -50 50 -50 12 0 -1 44 -19
69 -16 21 -19 21 -24 6z"/>
<path d="M2172 1530 c-2 -39 13 -54 24 -25 7 18 -3 65 -15 65 -4 0 -8 -18 -9
-40z"/>
<path d="M203 1515 c0 -22 2 -30 4 -17 2 12 2 30 0 40 -3 9 -5 -1 -4 -23z"/>
<path d="M247 1480 c-7 -80 -4 -92 18 -83 18 6 18 42 1 107 l-13 49 -6 -73z"/>
<path d="M2110 1495 c10 -44 17 -53 26 -32 10 26 0 62 -18 65 -14 3 -15 -2 -8
-33z"/>
<path d="M440 1492 c-8 -10 -38 -35 -67 -56 -52 -39 -53 -43 -33 -91 5 -11 18
-48 30 -81 25 -70 50 -90 100 -80 43 8 80 -2 73 -20 -5 -14 23 -32 33 -21 8 7
-17 117 -28 123 -4 3 -8 13 -8 23 0 9 -9 35 -19 57 -18 38 -22 40 -53 36 -30
-5 -32 -4 -19 12 8 9 20 15 27 12 22 -8 27 13 13 60 -14 48 -26 54 -49 26z
m-22 -114 c-5 -15 -58 -24 -58 -10 0 15 12 22 38 22 14 0 22 -5 20 -12z"/>
<path d="M3427 1503 c-4 -3 -7 -15 -7 -25 0 -19 34 -26 44 -9 3 4 20 12 38 16
29 6 31 8 13 15 -24 10 -79 12 -88 3z"/>
<path d="M3290 1475 c-11 -13 -7 -15 24 -15 37 0 48 13 20 24 -23 9 -30 8 -44
-9z"/>
<path d="M2595 1448 c12 -54 45 -81 45 -35 -1 21 -31 67 -45 67 -4 0 -3 -15 0
-32z"/>
<path d="M2168 1440 c2 -17 -1 -36 -7 -44 -16 -19 4 -116 35 -171 21 -38 24
-57 24 -142 1 -98 1 -98 34 -131 40 -40 62 -105 72 -217 6 -75 8 -78 17 -45
10 36 -7 204 -23 225 -4 6 -10 26 -13 45 -27 161 -71 332 -92 360 -14 19 -17
58 -5 65 10 6 -27 85 -39 85 -4 0 -6 -14 -3 -30z"/>
<path d="M747 1423 c-34 -5 -41 -19 -62 -123 -9 -47 -23 -92 -30 -100 -18 -21
-29 -60 -16 -60 5 0 13 5 16 10 4 6 10 8 15 5 5 -3 11 -1 15 5 3 5 20 10 37
10 34 0 108 29 108 42 0 4 8 16 18 26 36 36 52 67 52 100 0 21 4 31 11 27 7
-5 9 5 7 26 l-3 34 -70 1 c-38 1 -82 -1 -98 -3z"/>
<path d="M2097 1367 c-3 -8 -1 -20 4 -28 5 -9 9 -9 9 -2 0 6 3 18 6 27 3 9 2
16 -4 16 -5 0 -12 -6 -15 -13z"/>
<path d="M256 1351 c-9 -13 4 -61 15 -61 5 0 13 -8 16 -17 9 -22 44 -63 55
-63 17 0 7 34 -35 120 -13 26 -41 38 -51 21z"/>
<path d="M2650 1334 c0 -14 5 -35 11 -46 9 -17 8 -24 -5 -34 -26 -18 -50 -124
-28 -124 10 0 42 81 42 108 0 32 12 27 40 -18 13 -22 30 -42 37 -44 7 -3 21
-22 31 -43 11 -21 30 -47 42 -58 l23 -20 -21 40 c-11 22 -29 58 -39 80 -22 47
-115 184 -125 185 -5 0 -8 -12 -8 -26z"/>
<path d="M250 1231 c0 -10 73 -71 86 -71 4 0 -11 18 -35 40 -45 42 -51 46 -51
31z"/>
<path d="M875 1200 c-3 -5 -2 -10 4 -10 5 0 13 5 16 10 3 6 2 10 -4 10 -5 0
-13 -4 -16 -10z"/>
<path d="M4112 1180 c0 -14 2 -19 5 -12 2 6 2 18 0 25 -3 6 -5 1 -5 -13z"/>
<path d="M360 1146 c0 -2 7 -7 16 -10 8 -3 12 -2 9 4 -6 10 -25 14 -25 6z"/>
<path d="M4220 1121 c0 -15 24 -29 52 -29 21 0 24 3 15 13 -16 15 -67 28 -67
16z"/>
<path d="M468 1113 c6 -2 18 -2 25 0 6 3 1 5 -13 5 -14 0 -19 -2 -12 -5z"/>
<path d="M638 1113 c12 -2 30 -2 40 0 9 3 -1 5 -23 4 -22 0 -30 -2 -17 -4z"/>
<path d="M2372 995 c5 -89 17 -129 35 -112 6 7 6 137 -1 182 -2 11 -11 22 -21
24 -16 3 -17 -5 -13 -94z"/>
<path d="M4180 1080 c0 -5 7 -10 16 -10 8 0 12 5 9 10 -3 6 -10 10 -16 10 -5
0 -9 -4 -9 -10z"/>
<path d="M2593 1058 c-15 -19 -27 -92 -14 -83 6 3 11 15 11 26 0 11 5 29 11
41 12 23 7 34 -8 16z"/>
<path d="M4325 1050 c-3 -5 1 -10 9 -10 9 0 16 5 16 10 0 6 -4 10 -9 10 -6 0
-13 -4 -16 -10z"/>
<path d="M2840 1042 c0 -11 61 -85 85 -102 11 -8 45 -40 76 -72 31 -32 59 -58
63 -58 18 0 -46 81 -131 167 -65 67 -93 86 -93 65z"/>
<path d="M4270 1020 c0 -5 5 -10 10 -10 6 0 10 5 10 10 0 6 -4 10 -10 10 -5 0
-10 -4 -10 -10z"/>
<path d="M4305 970 c-10 -11 -26 -20 -35 -20 -22 0 -110 -94 -110 -117 1 -14
4 -13 15 8 7 14 25 30 39 37 14 6 26 15 26 20 0 5 18 17 40 27 22 10 40 21 40
25 0 4 9 10 21 13 12 3 18 10 14 16 -10 17 -30 13 -50 -9z"/>
<path d="M2553 885 c-6 -27 -10 -52 -7 -54 7 -8 25 54 22 78 -2 20 -6 14 -15
-24z"/>
<path d="M3981 896 c-19 -23 4 -28 24 -6 15 17 16 20 3 20 -9 0 -21 -6 -27
-14z"/>
<path d="M3120 842 c0 -5 16 -22 35 -38 19 -16 35 -34 35 -40 0 -18 46 -54 76
-59 16 -3 50 -9 77 -13 26 -5 47 -6 47 -2 0 11 -47 40 -63 40 -8 0 -20 6 -27
14 -6 8 -28 16 -47 18 -23 2 -40 10 -47 22 -22 39 -50 66 -68 66 -10 0 -18 -4
-18 -8z"/>
<path d="M4020 800 c-19 -15 -21 -20 -9 -20 16 0 46 27 38 35 -2 2 -15 -5 -29
-15z"/>
<path d="M2388 793 c-3 -5 -4 -92 -4 -194 1 -150 4 -189 16 -204 14 -17 15
-15 22 26 11 70 9 175 -3 206 -7 15 -11 58 -10 95 1 36 -3 69 -8 72 -5 4 -11
3 -13 -1z"/>
<path d="M3768 763 c6 -2 18 -2 25 0 6 3 1 5 -13 5 -14 0 -19 -2 -12 -5z"/>
<path d="M3698 743 c6 -2 18 -2 25 0 6 3 1 5 -13 5 -14 0 -19 -2 -12 -5z"/>
<path d="M2511 693 c0 -12 -4 -30 -7 -40 -5 -14 -4 -15 5 -7 7 6 11 24 8 40
-3 21 -4 23 -6 7z"/>
<path d="M3846 701 c-7 -10 17 -21 45 -21 10 0 19 7 19 15 0 17 -55 22 -64 6z"/>
<path d="M3450 691 c0 -13 64 -31 69 -19 4 12 1 15 -36 23 -21 4 -33 3 -33 -4z"/>
<path d="M2441 654 c0 -11 3 -14 6 -6 3 7 2 16 -1 19 -3 4 -6 -2 -5 -13z"/>
<path d="M3753 655 c-8 -22 0 -27 30 -20 17 5 24 12 20 21 -7 19 -42 18 -50
-1z"/>
<path d="M3356 653 c-5 -6 22 -25 49 -36 64 -26 145 -36 145 -19 0 14 -51 37
-72 34 -11 -2 -25 1 -31 6 -15 11 -83 23 -91 15z"/>
<path d="M3631 648 c-34 -6 -50 -13 -43 -20 14 -14 69 -13 88 3 9 8 19 13 21
12 1 -2 3 0 4 4 1 11 -11 11 -70 1z"/>
<path d="M2332 570 c-1 -63 1 -80 9 -67 7 11 7 40 1 85 l-9 67 -1 -85z"/>
<path d="M2483 528 c-8 -46 -10 -97 -4 -145 0 -7 5 -13 11 -13 5 0 9 44 9 105
0 58 -1 105 -3 105 -2 0 -8 -24 -13 -52z"/>
<path d="M2331 414 c0 -11 3 -14 6 -6 3 7 2 16 -1 19 -3 4 -6 -2 -5 -13z"/>
<path d="M2359 348 c-2 -56 3 -239 7 -265 4 -18 11 -30 16 -27 7 4 7 38 3 93
-4 47 -7 111 -6 143 1 31 -3 59 -9 63 -5 3 -10 0 -11 -7z"/>
<path d="M2406 323 c-10 -67 -6 -124 11 -154 25 -42 36 -36 26 14 -4 23 -8 72
-8 110 0 74 -18 93 -29 30z"/>
<path d="M2415 50 c3 -5 8 -10 11 -10 2 0 4 5 4 10 0 6 -5 10 -11 10 -5 0 -7
-4 -4 -10z"/>
</g>
</svg>
